<svg width="16" height="20" viewBox="0 0 16 20" fill="none" xmlns="http://www.w3.org/2000/svg">
<path d="M15.7782 18.3548L14.6479 5.76878C14.6172 5.42516 14.329 5.16181 13.984 5.16181H11.6532V4.11067C11.6532 2.15175 10.0594 0.557861 8.10037 0.557861C6.14163 0.557861 4.54769 2.15175 4.54769 4.11067V5.16181H2.21543C1.87038 5.16181 1.58223 5.42516 1.55152 5.76878L0.416698 18.4044C0.40008 18.5909 0.462593 18.7756 0.588782 18.9139C0.715252 19.0522 0.893906 19.1305 1.08094 19.1305H15.1188C15.1194 19.1305 15.1202 19.1305 15.1208 19.1305C15.4892 19.1305 15.7872 18.832 15.7872 18.4641C15.7872 18.427 15.7841 18.3903 15.7782 18.3548ZM5.88111 4.11039C5.88111 2.88659 6.87679 1.89094 8.10037 1.89094C9.32423 1.89094 10.32 2.88659 10.32 4.11039V5.16153H5.88089V4.11039H5.88111ZM1.81009 17.7975L2.82531 6.49489H4.54802V7.68685C4.54802 8.05526 4.84653 8.35353 5.21467 8.35353C5.5831 8.35353 5.88111 8.05498 5.88111 7.68685V6.49489H10.3203V7.68685C10.3203 8.05526 10.6186 8.35353 10.9867 8.35353C11.3552 8.35353 11.6534 8.05498 11.6534 7.68685V6.49489H13.3747L14.3899 17.7975H1.81042H1.81009Z" fill="white"/>
</svg>
