<svg width="15" height="16" viewBox="0 0 15 16" fill="none" xmlns="http://www.w3.org/2000/svg">
<path d="M11.4023 4.26466C11.142 4.00469 10.7201 4.00441 10.4601 4.26466C10.1998 4.52491 10.1998 4.94683 10.4601 5.2068L12.4318 7.17867H4.26865C3.90078 7.17867 3.60254 7.47695 3.60254 7.84479C3.60254 8.21291 3.90107 8.51091 4.26865 8.51091H12.4318L10.4601 10.4825C10.1998 10.7427 10.1998 11.1644 10.4601 11.4246C10.59 11.5548 10.7606 11.6198 10.931 11.6198C11.1014 11.6198 11.2718 11.5548 11.4019 11.4246L14.5111 8.31572C14.7714 8.05575 14.7714 7.63383 14.5111 7.37358L11.4019 4.26438L11.4023 4.26466Z" fill="white"/>
<path d="M7.37761 15.1728C7.74575 15.1728 8.04382 14.8745 8.04382 14.5067C8.04382 14.1389 7.74547 13.8406 7.37761 13.8406H2.26982V1.84908H7.37761C7.74575 1.84908 8.04382 1.55052 8.04382 1.18296C8.04382 0.814838 7.74547 0.516846 7.37761 0.516846H1.60371C1.23585 0.516846 0.9375 0.81512 0.9375 1.18296V14.5067C0.9375 14.8748 1.23614 15.1728 1.60371 15.1728H7.37761Z" fill="white"/>
</svg>
