<svg width="17" height="15" viewBox="0 0 17 15" fill="none" xmlns="http://www.w3.org/2000/svg">
<path d="M15.7676 11.492C15.9096 11.492 16.0276 11.5396 16.1195 11.6315C16.2116 11.7233 16.2589 11.8416 16.2589 11.9836V12.9684C16.2589 13.1129 16.2116 13.2313 16.1195 13.3231C16.0276 13.4152 15.9096 13.4625 15.7676 13.4625H5.42294V13.9566C5.42294 14.0986 5.37532 14.2167 5.28349 14.3085C5.19165 14.4003 5.07361 14.4479 4.93163 14.4479H3.94653C3.80201 14.4479 3.6837 14.4003 3.59187 14.3085C3.50003 14.2167 3.45242 14.0986 3.45242 13.9566V13.4625H0.991178C0.846665 13.4625 0.728354 13.4152 0.636519 13.3231C0.544402 13.2313 0.49707 13.1132 0.49707 12.9684V11.9836C0.49707 11.8416 0.544402 11.7233 0.636519 11.6315C0.728354 11.5396 0.846383 11.492 0.991178 11.492H3.45242V10.9982C3.45242 10.8562 3.50003 10.7382 3.59187 10.6461C3.6837 10.5542 3.80173 10.5069 3.94653 10.5069H4.93163C5.07361 10.5069 5.19165 10.5542 5.28349 10.6461C5.37532 10.7382 5.42294 10.8562 5.42294 10.9982V11.492H15.7676ZM15.7676 6.56673C15.9096 6.56673 16.0276 6.61406 16.1195 6.70589C16.2116 6.79801 16.2589 6.91604 16.2589 7.05802V8.04313C16.2589 8.18736 16.2116 8.30569 16.1195 8.3978C16.0276 8.48964 15.9096 8.53696 15.7676 8.53696H13.3036V9.02825C13.3036 9.17276 13.256 9.29107 13.1641 9.38291C13.0723 9.47503 12.9542 9.52236 12.8123 9.52236H11.8272C11.6827 9.52236 11.5643 9.47503 11.4725 9.38291C11.3807 9.29107 11.3331 9.17305 11.3331 9.02825V8.53696H0.991178C0.846665 8.53696 0.728354 8.48964 0.636519 8.3978C0.544402 8.30569 0.49707 8.18764 0.49707 8.04313V7.05802C0.49707 6.91604 0.544402 6.79801 0.636519 6.70589C0.728354 6.61406 0.846383 6.56673 0.991178 6.56673H11.3331V6.07263C11.3331 5.93065 11.3807 5.81261 11.4725 5.72077C11.5643 5.62866 11.6824 5.58134 11.8272 5.58134H12.8123C12.9542 5.58134 13.0723 5.62866 13.1641 5.72077C13.256 5.81261 13.3036 5.93065 13.3036 6.07263V6.56673H15.7676ZM15.7676 1.64116C15.9096 1.64116 16.0276 1.68849 16.1195 1.78061C16.2116 1.87244 16.2589 1.99047 16.2589 2.13245V3.11757C16.2589 3.2618 16.2116 3.38039 16.1195 3.47223C16.0276 3.56406 15.9096 3.61139 15.7676 3.61139H9.36339V4.10296C9.36339 4.24719 9.31578 4.36551 9.22394 4.45762C9.13211 4.54946 9.01407 4.59678 8.87209 4.59678H7.88698C7.74247 4.59678 7.62416 4.54946 7.53232 4.45762C7.44049 4.36551 7.39288 4.24748 7.39288 4.10296V3.61139H0.991453C0.84694 3.61139 0.728629 3.56406 0.636794 3.47223C0.544677 3.38039 0.497345 3.26208 0.497345 3.11757V2.13245C0.497345 1.99047 0.544677 1.87244 0.636794 1.78061C0.728629 1.68849 0.846658 1.64116 0.991453 1.64116H7.39288V1.14705C7.39288 1.00507 7.44049 0.887031 7.53232 0.795196C7.62416 0.703361 7.74219 0.655762 7.88698 0.655762H8.87209C9.01407 0.655762 9.13211 0.703361 9.22394 0.795196C9.31578 0.887031 9.36339 1.00507 9.36339 1.14705V1.64116H15.7676Z" fill="#00B0AB"/>
</svg>
