<svg width="154" height="35" viewBox="0 0 154 35" fill="none" xmlns="http://www.w3.org/2000/svg">
<path d="M143.797 13.8849L141.873 20.2545H145.691L143.797 13.8849ZM153.662 27.8489H147.982L146.852 24.0825H140.713L139.583 27.8489H133.933L141.232 6.9031H146.363L153.662 27.8489ZM128.924 27.8489H123.579V11.037H118.021V6.9031H134.421V11.037H128.924V27.8489H128.924ZM108.645 28.0937C106.12 28.0937 104.074 27.5221 102.506 26.3789C100.979 25.2359 100.216 23.3981 100.216 20.8668H105.438C105.499 22.0304 105.769 22.8471 106.247 23.3168C106.726 23.7865 107.525 24.0206 108.645 24.0206C109.52 24.0206 110.213 23.8113 110.721 23.3933C111.231 22.9745 111.485 22.4286 111.485 21.7547C111.485 21.0602 111.068 20.5092 110.233 20.1011C109.602 19.8153 109.215 19.6419 109.073 19.5806C108.564 19.3967 108.034 19.2233 107.485 19.0598L105.53 18.417C105.163 18.2947 104.583 18.029 103.789 17.6206C103.036 17.2125 102.476 16.8244 102.11 16.4573C101.132 15.4363 100.644 14.1707 100.644 12.6601C100.644 10.7819 101.367 9.29157 102.812 8.18898C104.237 7.06606 106.172 6.50488 108.614 6.50488C110.813 6.50488 112.656 7.06634 114.142 8.18898C115.629 9.31191 116.372 10.9861 116.372 13.2111H111.149C111.149 12.2517 110.94 11.5628 110.523 11.1443C110.106 10.7257 109.459 10.5164 108.584 10.5164C107.749 10.5164 107.103 10.6949 106.645 11.0525C106.187 11.4095 105.957 11.9046 105.957 12.5372C105.957 13.1904 106.375 13.7316 107.21 14.1603C107.963 14.4871 108.92 14.8031 110.08 15.1098C110.63 15.2527 111.272 15.4467 112.005 15.6913C112.452 15.8342 113.033 16.0794 113.745 16.4262C114.458 16.773 115.008 17.1407 115.395 17.5285C116.372 18.5085 116.861 19.754 116.861 21.2644C116.861 23.2445 116.138 24.8778 114.692 26.1642C113.267 27.4504 111.251 28.0935 108.645 28.0935V28.0937ZM89.8015 13.8849L87.8772 20.2545H91.6949L89.8015 13.8849ZM99.6662 27.8489H93.9855L92.856 24.0825H86.7172L85.5872 27.8489H79.9371L87.2364 6.9031H92.367L99.6662 27.8489ZM79.2648 27.8489H65.2159V6.9031H70.622V23.7147H79.2648V27.8489ZM52.8775 23.8983C55.728 23.8983 57.1533 21.7445 57.1533 17.437C57.1533 12.9659 55.728 10.7308 52.8775 10.7308C49.9864 10.7308 48.5406 12.9659 48.5406 17.437C48.5406 21.7445 49.9864 23.8983 52.8775 23.8983ZM43.1046 17.437C43.1046 13.9663 43.9497 11.2818 45.6394 9.38336C47.3294 7.48461 49.7422 6.5351 52.8775 6.5351C55.9928 6.5351 58.3901 7.47953 60.07 9.36783C61.7496 11.2561 62.5893 13.9462 62.5893 17.4367C62.5893 20.8258 61.7443 23.4493 60.0548 25.3068C58.3648 27.1648 55.9725 28.0935 52.8775 28.0935C49.7625 28.0935 47.3548 27.1595 45.6546 25.2915C43.9545 23.4236 43.1044 20.8052 43.1044 17.4367L43.1046 17.437Z" fill="#FEFEFE"/>
<path d="M5.95287 30.3711C2.30578 27.1936 0 22.509 0 17.2844C0 8.14316 7.05786 0.655791 16.0077 0C14.4545 1.66659 12.8518 3.66955 11.2038 6.03316C9.83401 7.998 8.7121 9.98881 7.81611 11.9548C5.61935 16.7772 4.7687 21.4838 4.95489 25.3366C5.04615 27.2227 5.39037 28.9263 5.95287 30.3711ZM20.2863 0.213796C21.4051 0.410364 22.4864 0.714818 23.5201 1.11558C21.7794 3.14085 20.2271 5.93686 19.4793 8.58798C18.7695 11.1055 18.7666 13.57 19.9271 15.3543C20.4009 16.0858 21.3769 16.2934 22.1067 15.8183C22.8362 15.3436 23.0433 14.365 22.5698 13.6332C21.9616 12.6984 22.0368 11.1445 22.5171 9.44232C23.1458 7.21257 24.4581 4.85574 25.9304 3.15215C26.1008 2.9553 26.2698 2.76466 26.4374 2.5808C29.4555 4.47333 31.8494 7.27414 33.2375 10.6014C32.2382 14.0179 30.8439 17.2014 29.9811 18.8982C27.4621 23.8539 24.0257 27.5062 20.5927 29.7617C16.8907 32.1936 13.3008 32.9799 11.0703 31.9584C10.9117 31.8858 10.7599 31.7982 10.6159 31.6977C9.17011 30.6841 8.25523 28.321 8.10369 25.1884C7.93919 21.7897 8.7059 17.6024 10.681 13.2672C11.5026 11.4639 12.5307 9.63945 13.785 7.84097C16.0685 4.56568 18.2391 2.04899 20.2866 0.214079L20.2863 0.213796ZM34.5484 16.4157C34.5628 16.7035 34.5698 16.993 34.5698 17.2841C34.5698 26.6008 27.2376 34.1997 18.0433 34.5979C19.4486 34.0808 20.8907 33.3502 22.3211 32.4108C26.1718 29.8814 30.009 25.8168 32.7961 20.3346C33.2733 19.3958 33.9028 18.0286 34.5481 16.4157H34.5484Z" fill="#FEFEFE"/>
</svg>
