<svg width="24" height="21" viewBox="0 0 24 21" fill="none" xmlns="http://www.w3.org/2000/svg">
<path d="M17.8223 9.18421C17.8217 9.17998 17.8214 9.17548 17.8208 9.17125C17.8177 9.15069 17.8138 9.12984 17.8082 9.10956C17.8082 9.10928 17.808 9.10901 17.808 9.10873C17.8026 9.08985 17.7961 9.07098 17.7885 9.05239C17.7865 9.04704 17.784 9.04169 17.7818 9.03662C17.7759 9.02282 17.769 9.00986 17.762 8.99662C17.7589 8.99099 17.7558 8.98508 17.7524 8.97972C17.7507 8.97691 17.749 8.97353 17.7473 8.97043C17.7395 8.95832 17.7313 8.94733 17.7231 8.93579C17.7214 8.93381 17.72 8.93156 17.7186 8.92959C17.7057 8.91297 17.6919 8.89748 17.6773 8.88256C17.6744 8.87974 17.6715 8.8772 17.6685 8.87467C17.6558 8.86228 17.6429 8.85101 17.6291 8.84031C17.6257 8.83749 17.6223 8.83467 17.6186 8.83214C17.6003 8.81834 17.5815 8.80594 17.5621 8.79496L9.99863 4.49604L14.3532 1.75384L21.6539 5.90348L18.5792 7.8393C18.3389 7.99027 18.267 8.30741 18.4183 8.54738C18.569 8.78735 18.8864 8.85917 19.1261 8.7082L22.9265 6.31526C23.0791 6.21893 23.17 6.04966 23.1661 5.86912C23.1622 5.68886 23.0637 5.52381 22.9068 5.43452L14.5932 0.709182C14.4287 0.615672 14.2259 0.62018 14.0659 0.721012L8.7288 4.08145C8.72767 4.08229 8.72652 4.08285 8.72539 4.0837L6.05887 5.76293C6.05746 5.76349 6.05636 5.76434 6.05523 5.76519L0.714373 9.12788C0.561707 9.2242 0.470789 9.39347 0.474733 9.57401C0.478676 9.75427 0.577287 9.91933 0.734178 10.0089L9.04766 14.734C9.12653 14.779 9.21418 14.8013 9.30149 14.8013C9.39642 14.8013 9.49126 14.7748 9.57491 14.7221L13.3753 12.3292C13.6153 12.1782 13.6871 11.8611 13.5361 11.6214C13.3854 11.3811 13.0679 11.3093 12.8282 11.4603L9.28796 13.6896L1.98729 9.53994L6.34219 6.79802L14.1287 11.2237V17.0852C14.1287 17.272 14.2302 17.4443 14.3938 17.5347C14.4715 17.5773 14.5566 17.5984 14.6419 17.5984C14.7371 17.5984 14.8321 17.5722 14.9158 17.5195L17.5859 15.838C17.7349 15.744 17.8257 15.58 17.8257 15.4035V9.24335C17.8257 9.24025 17.8254 9.23744 17.8251 9.23434C17.8248 9.21744 17.8237 9.20026 17.8217 9.18336L17.8223 9.18421ZM12.8291 17.6212L9.28873 19.8505L1.24251 15.2773C0.996326 15.1373 0.68261 15.2235 0.54262 15.4699C0.402629 15.7164 0.488816 16.0299 0.735279 16.1698L9.04876 20.8952C9.12763 20.94 9.21495 20.9622 9.30226 20.9622C9.39747 20.9622 9.49247 20.9357 9.57612 20.8831L13.3764 18.4901C13.6164 18.3391 13.6882 18.022 13.5372 17.7823C13.3863 17.5421 13.0691 17.4702 12.8294 17.6212H12.8291ZM22.3801 11.6073L18.5797 14.0002C18.3397 14.1512 18.2679 14.4683 18.4188 14.7083C18.5163 14.8632 18.6831 14.9483 18.8538 14.9483C18.9473 14.9483 19.0419 14.9227 19.127 14.8691L22.9273 12.4762C23.1673 12.3252 23.2391 12.0081 23.0881 11.7684C22.9371 11.5281 22.62 11.4563 22.3803 11.6073H22.3801ZM12.8291 15.5677L9.28873 17.797L1.24251 13.2237C0.996326 13.0837 0.68261 13.1699 0.54262 13.4164C0.402629 13.6628 0.488816 13.9763 0.735279 14.1163L9.04876 18.8416C9.12763 18.8864 9.21495 18.9087 9.30226 18.9087C9.39747 18.9087 9.49247 18.8822 9.57612 18.8295L13.3764 16.4366C13.6164 16.2856 13.6882 15.9684 13.5372 15.7288C13.3863 15.4885 13.0691 15.4167 12.8294 15.5677H12.8291ZM22.3801 9.55374L18.5797 11.9467C18.3397 12.0977 18.2679 12.4148 18.4188 12.6545C18.5163 12.8097 18.6831 12.8947 18.8538 12.8947C18.9473 12.8947 19.0419 12.8691 19.127 12.8156L22.9273 10.4226C23.1673 10.2717 23.2391 9.95454 23.0881 9.71457C22.9371 9.4746 22.62 9.40277 22.3803 9.55374H22.3801ZM12.8291 13.5141L9.28873 15.7434L1.24251 11.1702C0.996326 11.0299 0.68261 11.1164 0.54262 11.3628C0.402629 11.609 0.488816 11.9227 0.735279 12.0627L9.04876 16.7881C9.12763 16.8329 9.21495 16.8551 9.30226 16.8551C9.39747 16.8551 9.49247 16.8286 9.57612 16.776L13.3764 14.383C13.6164 14.232 13.6882 13.9149 13.5372 13.6752C13.3863 13.435 13.0691 13.3631 12.8294 13.5141H12.8291ZM22.3801 7.50019L18.5797 9.89313C18.3397 10.0441 18.2679 10.3612 18.4188 10.6009C18.5163 10.7561 18.6831 10.8412 18.8538 10.8412C18.9473 10.8412 19.0419 10.8156 19.127 10.762L22.9273 8.3691C23.1673 8.21813 23.2391 7.90098 23.0881 7.66101C22.9371 7.42104 22.62 7.34922 22.3803 7.50019H22.3801ZM15.1563 16.1558V10.9254C15.1563 10.7406 15.0569 10.5702 14.8963 10.4793L7.32859 6.17753L9.013 5.11681L16.3137 9.26645L15.6745 9.66894C15.4345 9.8199 15.3627 10.137 15.5137 10.377C15.6111 10.5319 15.7782 10.617 15.9489 10.617C16.0422 10.617 16.1367 10.5914 16.2218 10.5378L16.7998 10.1737V15.1207L15.1565 16.1558H15.1563Z" fill="white"/>
</svg>
