<svg width="35" height="35" viewBox="0 0 35 35" fill="none" xmlns="http://www.w3.org/2000/svg">
<path d="M5.95287 30.3711C2.30578 27.1936 0 22.509 0 17.2844C0 8.14316 7.05786 0.655791 16.0077 0C14.4545 1.66659 12.8518 3.66955 11.2038 6.03316C9.83401 7.998 8.7121 9.98881 7.81611 11.9548C5.61935 16.7772 4.7687 21.4838 4.95489 25.3366C5.04615 27.2227 5.39037 28.9263 5.95287 30.3711ZM20.2863 0.213796C21.4051 0.410364 22.4864 0.714818 23.5201 1.11558C21.7794 3.14085 20.2271 5.93686 19.4793 8.58798C18.7695 11.1055 18.7666 13.57 19.9271 15.3543C20.4009 16.0858 21.3769 16.2934 22.1067 15.8183C22.8362 15.3436 23.0433 14.365 22.5698 13.6332C21.9616 12.6984 22.0368 11.1445 22.5171 9.44232C23.1458 7.21257 24.4581 4.85574 25.9304 3.15215C26.1008 2.9553 26.2698 2.76466 26.4374 2.5808C29.4555 4.47333 31.8494 7.27414 33.2375 10.6014C32.2382 14.0179 30.8439 17.2014 29.9811 18.8982C27.4621 23.8539 24.0257 27.5062 20.5927 29.7617C16.8907 32.1936 13.3008 32.9799 11.0703 31.9584C10.9117 31.8858 10.7599 31.7982 10.6159 31.6977C9.17011 30.6841 8.25523 28.321 8.10369 25.1884C7.93919 21.7897 8.7059 17.6024 10.681 13.2672C11.5026 11.4639 12.5307 9.63945 13.785 7.84097C16.0685 4.56568 18.2391 2.04899 20.2866 0.214079L20.2863 0.213796ZM34.5484 16.4157C34.5628 16.7035 34.5698 16.993 34.5698 17.2841C34.5698 26.6008 27.2376 34.1997 18.0433 34.5979C19.4486 34.0808 20.8907 33.3502 22.3211 32.4108C26.1718 29.8814 30.009 25.8168 32.7961 20.3346C33.2733 19.3958 33.9028 18.0286 34.5481 16.4157H34.5484Z" fill="#00B0AB"/>
</svg>
