<svg width="15" height="15" viewBox="0 0 15 15" fill="none" xmlns="http://www.w3.org/2000/svg">
<path fill-rule="evenodd" clip-rule="evenodd" d="M14.0146 13.1781L9.97995 9.14367C10.7616 8.17844 11.232 6.95183 11.232 5.61565C11.232 2.51941 8.71244 0 5.61603 0C2.51962 0 0 2.51941 0 5.61565C0 8.71189 2.51962 11.2313 5.61603 11.2313C6.95228 11.2313 8.17889 10.7609 9.14418 9.97935L13.1789 14.0138C13.2938 14.129 13.4453 14.1873 13.5966 14.1873C13.7478 14.1873 13.8993 14.1293 14.0146 14.0138C14.2458 13.7828 14.2458 13.4094 14.0146 13.1781ZM5.61603 10.0492C3.17113 10.0492 1.18225 8.06071 1.18225 5.61565C1.18225 3.17088 3.17085 1.18211 5.61603 1.18211C8.06093 1.18211 10.0498 3.1706 10.0498 5.61565C10.0498 8.06042 8.06121 10.0492 5.61603 10.0492Z" fill="#B5B9B9"/>
</svg>
