<svg width="18" height="20" viewBox="0 0 18 20" fill="none" xmlns="http://www.w3.org/2000/svg">
<path d="M9.10051 0.599854C10.3638 0.599854 11.5081 1.11219 12.3359 1.93997C13.1637 2.76748 13.6761 3.91185 13.6761 5.17507C13.6761 6.43802 13.1637 7.5821 12.3359 8.41017C11.5083 9.23768 10.3638 9.75001 9.10051 9.75001C7.83749 9.75001 6.69335 9.23768 5.86523 8.41017C5.03768 7.58238 4.5253 6.43802 4.5253 5.17507C4.5253 3.91185 5.03768 2.76776 5.86523 1.93997C6.6956 1.11247 7.83946 0.599854 9.10051 0.599854ZM17.8439 18.5061C17.8439 18.8743 17.5454 19.1725 17.1775 19.1725C16.8093 19.1725 16.511 18.874 16.511 18.5061V16.8517C16.511 15.5814 15.9923 14.4272 15.1568 13.5918H15.1543C14.3172 12.7547 13.1631 12.2351 11.8939 12.2351H6.30722C5.03828 12.2351 3.88398 12.7547 3.04685 13.5918H3.04454C2.2091 14.4272 1.68998 15.5814 1.68998 16.8517V18.5061C1.68998 18.8743 1.39145 19.1725 1.02386 19.1725C0.655718 19.1725 0.357422 18.874 0.357422 18.5061V16.8517C0.357422 15.2175 1.02691 13.7301 2.106 12.6508C3.18283 11.5715 4.67063 10.9023 6.30744 10.9023H11.8941C13.5309 10.9023 15.019 11.5715 16.097 12.6494C17.1747 13.7301 17.8445 15.2172 17.8445 16.8517V18.5061H17.8439ZM11.3934 2.88239C10.807 2.2957 9.99595 1.93265 9.10051 1.93265C8.20366 1.93265 7.39277 2.29458 6.80774 2.87986V2.88239C6.22129 3.4688 5.85797 4.27969 5.85797 5.17507C5.85797 6.07017 6.22129 6.88106 6.80774 7.46775C7.39418 8.05416 8.20535 8.41749 9.10051 8.41749C9.99595 8.41749 10.807 8.05416 11.3934 7.46775C11.9798 6.88106 12.3432 6.07017 12.3432 5.17507C12.3432 4.27969 11.9798 3.4688 11.3934 2.88239Z" fill="white"/>
</svg>
